<svg width="240" height="55" viewBox="0 0 240 55" fill="none" xmlns="http://www.w3.org/2000/svg">
<path d="M155 48.6364V5H180.312V8.57954H158.984V25.0071H178.97V28.5867H158.984V45.0568H180.739V48.6364H155Z" fill="#3F4645"/>
<path d="M133.984 5V48.6364H130.107L104.325 12.0952H103.984V48.6364H100V5H103.857L129.723 41.5838H130.064V5H133.984Z" fill="#3F4645"/>
<path d="M73.9844 5V48.6364H70V5H73.9844Z" fill="#3F4645"/>
<path d="M24.6305 50.0997L6.18896 10.5518L9.80003 8.86789L26.7288 45.1717L45.5759 36.3832L47.0886 39.6273L24.6305 50.0997Z" fill="#3F4645"/>
<path d="M5 55H0L0 0L5 0L5 55Z" fill="#4E5D4E"/>
<path d="M10 55V50L240 50V55L10 55Z" fill="#4E5D4E"/>
<path d="M199.176 48.6364H195L210.874 5H215.135L231.009 48.6364H226.832L213.153 10.1776H212.855L199.176 48.6364Z" fill="#3F4645"/>
</svg>
